<svg width="59" height="59" viewBox="0 0 59 59" fill="none" xmlns="http://www.w3.org/2000/svg">
<circle cx="29.5" cy="29.5" r="28" stroke="#F1B90C" stroke-width="3"/>
<path d="M43.06 28.3002H10.739C10.2778 28.3002 9.83547 28.4793 9.50934 28.7981C9.18322 29.1168 9 29.5492 9 30C9 30.4508 9.18322 30.8832 9.50934 31.2019C9.83547 31.5207 10.2778 31.6998 10.739 31.6998H43.06L30.3757 44.0946C30.0492 44.4138 29.8657 44.8467 29.8657 45.2981C29.8657 45.7494 30.0492 46.1823 30.3757 46.5015C30.7023 46.8207 31.1451 47 31.6069 47C32.0687 47 32.5116 46.8207 32.8381 46.5015L48.4891 31.2034C48.6511 31.0456 48.7795 30.858 48.8672 30.6515C48.9549 30.445 49 30.2236 49 30C49 29.7764 48.9549 29.555 48.8672 29.3485C48.7795 29.142 48.6511 28.9544 48.4891 28.7966L32.8381 13.4985C32.5116 13.1793 32.0687 13 31.6069 13C31.1451 13 30.7023 13.1793 30.3757 13.4985C30.0492 13.8177 29.8657 14.2506 29.8657 14.7019C29.8657 15.1533 30.0492 15.5862 30.3757 15.9054L43.06 28.3002Z" fill="#F1B90C"/>
</svg>
